<svg  width="100%" height="100%" overflow="visible" style="display: block;" viewBox="0 0 1.8336 3.37131" fill="none" xmlns="http://www.w3.org/2000/svg">
<path id="Vector 510" d="M0.220096 2.69122C0.0395027 2.76467 -0.0473483 2.97062 0.0261086 3.15122C0.0995655 3.33181 0.305514 3.41866 0.486107 3.3452L0.353101 3.01821L0.220096 2.69122ZM1.40757 2.5893L1.54058 2.91629L1.40757 2.5893ZM1.46035 2.41551L1.16797 2.61331L1.46035 2.41551ZM1.40757 2.5893L1.27457 2.26231L0.220096 2.69122L0.353101 3.01821L0.486107 3.3452L1.54058 2.91629L1.40757 2.5893ZM0.917381 0.0258753L0.565323 0L0.484895 1.0943L0.836953 1.12018L1.18901 1.14605L1.26944 0.0517505L0.917381 0.0258753ZM1.00164 1.73747L0.709258 1.93527L1.16797 2.61331L1.46035 2.41551L1.75273 2.2177L1.29402 1.53966L1.00164 1.73747ZM0.836953 1.12018L0.484895 1.0943C0.463024 1.39188 0.542064 1.68814 0.709258 1.93527L1.00164 1.73747L1.29402 1.53966C1.21577 1.42399 1.17878 1.28533 1.18901 1.14605L0.836953 1.12018ZM1.40757 2.5893L1.54058 2.91629C1.81723 2.80376 1.92009 2.46507 1.75273 2.2177L1.46035 2.41551L1.16797 2.61331C1.08388 2.48902 1.13556 2.31885 1.27457 2.26231L1.40757 2.5893Z" fill="var(--stroke-0, #161D4F)"/>
</svg>
