<svg  width="100%" height="100%" overflow="visible" style="display: block;" viewBox="0 0 7.01781 10.8526" fill="none" xmlns="http://www.w3.org/2000/svg">
<g id="Vector 302">
<path d="M5.42754 8.98797C5.28861 5.7666 2.02559 2.68024 0.38973 1.51645L0.259551 0.25955C1.25118 0.678517 3.05306 2.1305 4.64298 3.83474C5.99735 5.28649 6.83899 8.49142 6.75213 10.2681L5.42754 8.98797Z" fill="var(--fill-0, #6FC9E8)"/>
<path d="M0.38973 1.51645L0.131564 1.54319L0.143653 1.65991L0.239272 1.72794L0.38973 1.51645ZM5.42754 8.98797L5.16824 8.99916L5.1727 9.10263L5.24717 9.1746L5.42754 8.98797ZM6.75213 10.2681L6.57176 10.4548L6.98342 10.8526L7.01137 10.2808L6.75213 10.2681ZM4.64298 3.83474L4.83276 3.65769V3.65769L4.64298 3.83474ZM0.259551 0.25955L0.360565 0.0204654C0.276029 -0.0152511 0.178916 -0.0036709 0.10515 0.0509224C0.0313831 0.105516 -0.00807014 0.195006 0.0013842 0.286288L0.259551 0.25955ZM0.38973 1.51645L0.239272 1.72794C1.03976 2.29743 2.24564 3.3433 3.26594 4.64104C4.2895 5.94291 5.10218 7.46757 5.16824 8.99916L5.42754 8.98797L5.68685 8.97679C5.61397 7.28701 4.72567 5.6578 3.67402 4.3202C2.61912 2.97847 1.37555 1.89926 0.540189 1.30496L0.38973 1.51645ZM5.42754 8.98797L5.24717 9.1746L6.57176 10.4548L6.75213 10.2681L6.9325 10.0815L5.60791 8.80134L5.42754 8.98797ZM6.75213 10.2681L7.01137 10.2808C7.05671 9.35345 6.86072 8.07692 6.4862 6.8536C6.11253 5.63308 5.54903 4.42545 4.83276 3.65769L4.64298 3.83474L4.4532 4.01179C5.09131 4.69578 5.62581 5.81649 5.98984 7.00556C6.35302 8.19182 6.53442 9.40612 6.49289 10.2555L6.75213 10.2681ZM4.64298 3.83474L4.83276 3.65769C4.03007 2.79728 3.17345 2.00002 2.39061 1.36376C1.61289 0.731654 0.891341 0.24472 0.360565 0.0204654L0.259551 0.25955L0.158537 0.498634C0.619393 0.693347 1.2946 1.14189 2.06321 1.76658C2.82669 2.38711 3.66597 3.16796 4.4532 4.01179L4.64298 3.83474ZM0.259551 0.25955L0.0013842 0.286288L0.131564 1.54319L0.38973 1.51645L0.647897 1.48971L0.517718 0.232811L0.259551 0.25955Z" fill="var(--stroke-0, #171E4F)"/>
</g>
</svg>
