<svg  width="100%" height="100%" overflow="visible" style="display: block;" viewBox="0 0 1.69544 4.19843" fill="none" xmlns="http://www.w3.org/2000/svg">
<path id="Vector 225" d="M1.42526 3.08705L1.57839 3.29661L1.69544 3.21107L1.68399 3.06656L1.42526 3.08705ZM0.106432 3.72931C-0.00930467 3.81388 -0.0345671 3.97627 0.0500064 4.092C0.13458 4.20774 0.296963 4.233 0.4127 4.14843L0.259566 3.93887L0.106432 3.72931ZM1.30383 1.55377L1.04509 1.57426V1.57426L1.30383 1.55377ZM1.42526 3.08705L1.27212 2.87749L0.106432 3.72931L0.259566 3.93887L0.4127 4.14843L1.57839 3.29661L1.42526 3.08705ZM1.1824 0.0204904L0.923667 0.0409808L1.04509 1.57426L1.30383 1.55377L1.56257 1.53328L1.44114 0L1.1824 0.0204904ZM1.30383 1.55377L1.04509 1.57426L1.16652 3.10754L1.42526 3.08705L1.68399 3.06656L1.56257 1.53328L1.30383 1.55377Z" fill="var(--stroke-0, #62294B)"/>
</svg>
