<svg  width="100%" height="100%" overflow="visible" style="display: block;" viewBox="0 0 23.3253 6.82124" fill="none" xmlns="http://www.w3.org/2000/svg">
<g id="Layer 2">
<path id="Vector" d="M3.41062 5.76101C4.7087 5.76101 5.76101 4.7087 5.76101 3.41062C5.76101 2.11253 4.7087 1.06022 3.41062 1.06022C2.11253 1.06022 1.06022 2.11253 1.06022 3.41062C1.06022 4.7087 2.11253 5.76101 3.41062 5.76101Z" stroke="var(--stroke-0, #949CA8)" stroke-width="2.12045"/>
<path id="Vector_2" d="M11.6622 5.76101C12.9603 5.76101 14.0126 4.7087 14.0126 3.41062C14.0126 2.11253 12.9603 1.06022 11.6622 1.06022C10.3641 1.06022 9.31183 2.11253 9.31183 3.41062C9.31183 4.7087 10.3641 5.76101 11.6622 5.76101Z" stroke="var(--stroke-0, #949CA8)" stroke-width="2.12045"/>
<path id="Vector_3" d="M19.9147 5.76101C21.2128 5.76101 22.2651 4.7087 22.2651 3.41062C22.2651 2.11253 21.2128 1.06022 19.9147 1.06022C18.6166 1.06022 17.5643 2.11253 17.5643 3.41062C17.5643 4.7087 18.6166 5.76101 19.9147 5.76101Z" stroke="var(--stroke-0, #949CA8)" stroke-width="2.12045"/>
</g>
</svg>
