<svg preserveAspectRatio="xMidYMid meet" width="100%" height="100%" overflow="visible" style="display: block;" viewBox="0 0 22 22" fill="none" xmlns="http://www.w3.org/2000/svg">
<path id="Vector" d="M11 0C8.82441 0 6.69767 0.645139 4.88873 1.85383C3.07979 3.06253 1.66989 4.78049 0.83733 6.79048C0.00476613 8.80047 -0.213071 11.0122 0.211367 13.146C0.635804 15.2798 1.68345 17.2398 3.22183 18.7782C4.76021 20.3165 6.72022 21.3642 8.85401 21.7886C10.9878 22.2131 13.1995 21.9952 15.2095 21.1627C17.2195 20.3301 18.9375 18.9202 20.1462 17.1113C21.3549 15.3023 22 13.1756 22 11C22 9.55546 21.7155 8.12506 21.1627 6.79048C20.6099 5.4559 19.7996 4.24327 18.7782 3.22182C17.7567 2.20038 16.5441 1.39013 15.2095 0.837325C13.8749 0.284523 12.4445 0 11 0ZM14.3 12.1H12.1V14.3C12.1 14.5917 11.9841 14.8715 11.7778 15.0778C11.5715 15.2841 11.2917 15.4 11 15.4C10.7083 15.4 10.4285 15.2841 10.2222 15.0778C10.0159 14.8715 9.9 14.5917 9.9 14.3V12.1H7.7C7.40827 12.1 7.12848 11.9841 6.92219 11.7778C6.7159 11.5715 6.6 11.2917 6.6 11C6.6 10.7083 6.7159 10.4285 6.92219 10.2222C7.12848 10.0159 7.40827 9.9 7.7 9.9H9.9V7.7C9.9 7.40826 10.0159 7.12847 10.2222 6.92218C10.4285 6.71589 10.7083 6.6 11 6.6C11.2917 6.6 11.5715 6.71589 11.7778 6.92218C11.9841 7.12847 12.1 7.40826 12.1 7.7V9.9H14.3C14.5917 9.9 14.8715 10.0159 15.0778 10.2222C15.2841 10.4285 15.4 10.7083 15.4 11C15.4 11.2917 15.2841 11.5715 15.0778 11.7778C14.8715 11.9841 14.5917 12.1 14.3 12.1Z" fill="var(--fill-0, #949CA8)"/>
</svg>
