<svg  width="100%" height="100%" overflow="visible" style="display: block;" viewBox="0 0 24.7034 24.703" fill="none" xmlns="http://www.w3.org/2000/svg">
<g id="Group 1171276187">
<path id="Vector" d="M20.942 12.3519C20.9421 12.7824 20.913 13.2123 20.855 13.6389C20.8652 13.5563 20.8753 13.4751 20.8884 13.3925C20.7758 14.2202 20.5551 15.0295 20.2318 15.7998C20.2637 15.7259 20.2956 15.6548 20.3246 15.578C20.0066 16.3305 19.5936 17.0392 19.0956 17.6868C19.1434 17.623 19.1912 17.5621 19.2405 17.4983C18.7369 18.1495 18.1525 18.7339 17.5014 19.2375C17.5651 19.1897 17.626 19.1418 17.6898 19.0926C17.0422 19.5906 16.3336 20.0036 15.5811 20.3216C15.655 20.2897 15.726 20.2578 15.8028 20.2288C15.0323 20.5517 14.2231 20.7729 13.3955 20.8868L13.6419 20.852C12.7867 20.9651 11.9203 20.9651 11.0651 20.852C11.1462 20.8622 11.2288 20.8723 11.3114 20.8868C10.4834 20.7729 9.67369 20.5517 8.90271 20.2288C8.97663 20.2607 9.04764 20.2926 9.12591 20.3216C8.3734 20.0036 7.66473 19.5906 7.01718 19.0926C7.08095 19.1404 7.14182 19.1882 7.20559 19.2375C6.5533 18.7352 5.96873 18.1506 5.46644 17.4983C5.51427 17.5621 5.5621 17.623 5.61137 17.6868C5.11442 17.0385 4.70148 16.3299 4.38237 15.578C4.41426 15.6519 4.44614 15.723 4.47513 15.7998C4.15247 15.0302 3.93129 14.222 3.81715 13.3954C3.82729 13.478 3.83889 13.5592 3.85193 13.6418C3.73745 12.7866 3.73745 11.9201 3.85193 11.0649C3.84178 11.1461 3.83019 11.2287 3.81715 11.3113C3.93058 10.4833 4.15128 9.67362 4.47368 8.90259C4.44179 8.9765 4.40991 9.04752 4.38092 9.12578C4.70003 8.37386 5.11297 7.66533 5.60992 7.01706C5.56354 7.08083 5.51572 7.1417 5.46499 7.20547C5.9669 6.55284 6.55152 5.96822 7.20414 5.46632L7.01574 5.61125C7.66257 5.11411 8.36963 4.70069 9.12011 4.3808C9.04619 4.41268 8.97518 4.44457 8.89692 4.47355C9.66887 4.15091 10.4796 3.93021 11.3085 3.81702C11.2259 3.82717 11.1433 3.83876 11.0622 3.8518C11.9173 3.73733 12.7839 3.73733 13.639 3.8518C13.5564 3.84166 13.4752 3.83007 13.3926 3.81702C14.2202 3.93027 15.0294 4.15098 15.7999 4.47355C15.726 4.44167 15.655 4.40978 15.5782 4.3808C16.3301 4.69991 17.0386 5.11285 17.6869 5.6098C17.6231 5.56342 17.5622 5.51559 17.4985 5.46487C18.1508 5.96716 18.7353 6.55172 19.2376 7.20402C19.1898 7.14025 19.142 7.07938 19.0927 7.01561C19.5904 7.6618 20.0034 8.369 20.3217 9.11998C20.2898 9.04607 20.2579 8.97505 20.2289 8.89679C20.5518 9.66777 20.773 10.4775 20.8869 11.3055C20.8753 11.2229 20.8652 11.1403 20.8521 11.0591C20.9124 11.4864 20.9425 11.9175 20.942 12.349C20.9371 12.4738 20.9574 12.5983 21.0017 12.7151C21.0461 12.8318 21.1135 12.9384 21.2001 13.0284C21.2866 13.1185 21.3905 13.1901 21.5054 13.2391C21.6203 13.288 21.7439 13.3132 21.8688 13.3132C21.9937 13.3132 22.1173 13.288 22.2322 13.2391C22.3471 13.1901 22.451 13.1185 22.5375 13.0284C22.6241 12.9384 22.6915 12.8318 22.7359 12.7151C22.7803 12.5983 22.8006 12.4738 22.7956 12.349C22.7944 10.2077 22.1335 8.11871 20.9029 6.36633C20.2659 5.47272 19.4978 4.68023 18.6246 4.01557C17.7881 3.3814 16.8594 2.87896 15.8709 2.5257C13.8623 1.80161 11.6798 1.71218 9.61869 2.26951C7.5576 2.82684 5.71754 4.00402 4.34759 5.64168C3.63973 6.49897 3.06694 7.45933 2.64902 8.48954C2.24903 9.48585 2.00793 10.5388 1.93452 11.6099C1.7806 13.7235 2.275 15.8339 3.35173 17.6593C4.42846 19.4846 6.0363 20.9382 7.96067 21.8259C8.47256 22.063 9.0022 22.2598 9.54475 22.4143C10.101 22.5657 10.6685 22.6718 11.2419 22.7317C13.8934 23.018 16.5538 22.2773 18.676 20.662C20.7981 19.0467 22.2205 16.6796 22.6507 14.0476C22.741 13.4858 22.7894 12.918 22.7956 12.349C22.7956 12.1034 22.6981 11.8678 22.5244 11.6942C22.3507 11.5205 22.1152 11.4229 21.8695 11.4229C21.6239 11.4229 21.3884 11.5205 21.2147 11.6942C21.041 11.8678 20.9434 12.1034 20.9434 12.349L20.942 12.3519Z" fill="var(--fill-0, #151E52)" stroke="var(--stroke-0, #151E52)" stroke-width="0.7034" stroke-miterlimit="10"/>
<path id="Vector_2" d="M15.6417 12.3529C15.6403 12.5369 15.6287 12.7208 15.607 12.9036C15.6171 12.821 15.6272 12.7398 15.6417 12.6572C15.5938 13.0355 15.4964 13.4058 15.3519 13.7587C15.3838 13.6833 15.4156 13.6137 15.4446 13.5355C15.3015 13.8662 15.1185 14.1782 14.8997 14.4645C14.9461 14.4022 14.9939 14.3413 15.0446 14.2775C14.8248 14.5606 14.5701 14.8148 14.2866 15.034C14.3504 14.9877 14.4113 14.9398 14.4751 14.8891C14.1894 15.109 13.8773 15.292 13.5461 15.434L13.7678 15.3413C13.4145 15.4911 13.0425 15.5925 12.662 15.6427L12.9084 15.608C12.5421 15.6529 12.1717 15.6529 11.8055 15.608C11.8881 15.6196 11.9707 15.6297 12.0518 15.6427C11.6739 15.5924 11.3044 15.4915 10.9533 15.3427C11.0272 15.3746 11.0982 15.4065 11.175 15.4355C10.8437 15.2935 10.5316 15.1104 10.246 14.8906L10.4344 15.0355C10.1509 14.8162 9.89625 14.562 9.67645 14.279C9.72427 14.3427 9.7721 14.4036 9.82138 14.4659C9.60257 14.1796 9.41957 13.8676 9.27644 13.5369C9.30833 13.6108 9.34021 13.6819 9.3692 13.7601C9.22134 13.4082 9.12047 13.0384 9.06919 12.6601C9.08079 12.7427 9.09093 12.8239 9.10398 12.9065C9.05905 12.5407 9.05905 12.1708 9.10398 11.805C9.09383 11.8862 9.08224 11.9688 9.06919 12.0514C9.12007 11.6731 9.22096 11.3032 9.3692 10.9514C9.33731 11.0253 9.30543 11.0963 9.27644 11.1746C9.41955 10.8434 9.60255 10.531 9.82138 10.2441C9.775 10.3079 9.72717 10.3688 9.67645 10.4325C9.89621 10.149 10.1509 9.89432 10.4344 9.67456C10.3707 9.72238 10.3098 9.77021 10.246 9.81949C10.5316 9.59717 10.8436 9.41121 11.175 9.26586C11.1011 9.29774 11.0301 9.32963 10.9533 9.35861C11.3044 9.21035 11.6739 9.10994 12.0518 9.06006C11.9707 9.0702 11.8881 9.08035 11.8055 9.09339C12.1717 9.04846 12.5421 9.04846 12.9084 9.09339C12.8258 9.08325 12.7432 9.0731 12.662 9.06006C13.0392 9.11205 13.4077 9.21441 13.7577 9.36441C13.6837 9.33252 13.6127 9.30064 13.5359 9.27165C13.8669 9.41473 14.179 9.59826 14.4649 9.81804C14.4011 9.77021 14.3403 9.72238 14.2765 9.67311C14.5607 9.89089 14.8163 10.1436 15.0374 10.4253C14.9896 10.3615 14.9417 10.3007 14.8925 10.2369C15.1113 10.5237 15.2943 10.8362 15.4374 11.1673C15.4055 11.0934 15.3736 11.0224 15.3446 10.9441C15.4922 11.2974 15.5922 11.6688 15.6417 12.0485C15.6301 11.9659 15.62 11.8833 15.607 11.8021C15.6287 11.9849 15.6403 12.1688 15.6417 12.3529C15.6368 12.4776 15.6571 12.6022 15.7015 12.7189C15.7458 12.8357 15.8133 12.9423 15.8998 13.0323C15.9864 13.1223 16.0902 13.194 16.2051 13.2429C16.3201 13.2918 16.4437 13.3171 16.5686 13.3171C16.6935 13.3171 16.8171 13.2918 16.932 13.2429C17.0469 13.194 17.1507 13.1223 17.2373 13.0323C17.3238 12.9423 17.3913 12.8357 17.4356 12.7189C17.48 12.6022 17.5003 12.4776 17.4954 12.3529C17.4958 11.3075 17.1767 10.2871 16.5809 9.42818C15.9532 8.5406 15.0693 7.86603 14.0475 7.49482C12.1011 6.78177 9.74601 7.41511 8.43006 9.02093C8.06643 9.46215 7.77311 9.95687 7.56048 10.4876C7.36724 10.9773 7.25184 11.4942 7.21845 12.0195C7.1501 13.0486 7.39359 14.0744 7.91714 14.963C8.44068 15.8516 9.21997 16.5618 10.1533 17.0007C10.6868 17.2433 11.2551 17.4008 11.8373 17.4674C12.3699 17.5237 12.9079 17.4953 13.4316 17.3833C15.4258 16.9804 17.1055 15.2587 17.4128 13.2398C17.4613 12.9465 17.4889 12.6501 17.4954 12.3529C17.4859 12.113 17.384 11.8861 17.2109 11.7198C17.0379 11.5534 16.8071 11.4605 16.5671 11.4605C16.3271 11.4605 16.0964 11.5534 15.9233 11.7198C15.7503 11.8861 15.6483 12.113 15.6388 12.3529H15.6417Z" fill="var(--fill-0, #151E52)" stroke="var(--stroke-0, #151E52)" stroke-width="0.7034" stroke-miterlimit="10"/>
<path id="Vector_3" d="M11.4246 21.873V23.4237C11.4246 23.6697 11.5223 23.9057 11.6962 24.0796C11.8702 24.2536 12.1061 24.3513 12.3521 24.3513C12.5981 24.3513 12.834 24.2536 13.008 24.0796C13.1819 23.9057 13.2797 23.6697 13.2797 23.4237V21.873C13.2797 21.627 13.1819 21.3911 13.008 21.2171C12.834 21.0432 12.5981 20.9454 12.3521 20.9454C12.1061 20.9454 11.8702 21.0432 11.6962 21.2171C11.5223 21.3911 11.4246 21.627 11.4246 21.873Z" fill="var(--fill-0, #151E52)" stroke="var(--stroke-0, #151E52)" stroke-width="0.7034" stroke-miterlimit="10"/>
<path id="Vector_4" d="M11.4246 1.27925V2.83434C11.4246 3.08034 11.5223 3.31626 11.6962 3.49021C11.8702 3.66416 12.1061 3.76189 12.3521 3.76189C12.5981 3.76189 12.834 3.66416 13.008 3.49021C13.1819 3.31626 13.2797 3.08034 13.2797 2.83434V1.27925C13.2797 1.03325 13.1819 0.797321 13.008 0.623372C12.834 0.449423 12.5981 0.3517 12.3521 0.3517C12.1061 0.3517 11.8702 0.449423 11.6962 0.623372C11.5223 0.797321 11.4246 1.03325 11.4246 1.27925V1.27925Z" fill="var(--fill-0, #151E52)" stroke="var(--stroke-0, #151E52)" stroke-width="0.7034" stroke-miterlimit="10"/>
<path id="Vector_5" d="M21.8734 13.2791H23.4241C23.6701 13.2791 23.906 13.1813 24.08 13.0074C24.2539 12.8334 24.3517 12.5975 24.3517 12.3515C24.3517 12.1055 24.2539 11.8696 24.08 11.6956C23.906 11.5217 23.6701 11.424 23.4241 11.424H21.8734C21.6274 11.424 21.3914 11.5217 21.2175 11.6956C21.0435 11.8696 20.9458 12.1055 20.9458 12.3515C20.9458 12.5975 21.0435 12.8334 21.2175 13.0074C21.3914 13.1813 21.6274 13.2791 21.8734 13.2791V13.2791Z" fill="var(--fill-0, #151E52)" stroke="var(--stroke-0, #151E52)" stroke-width="0.7034" stroke-miterlimit="10"/>
<path id="Vector_6" d="M1.27925 13.2791H2.83434C3.08034 13.2791 3.31626 13.1813 3.49021 13.0074C3.66416 12.8334 3.76189 12.5975 3.76189 12.3515C3.76189 12.1055 3.66416 11.8696 3.49021 11.6956C3.31626 11.5217 3.08034 11.424 2.83434 11.424H1.27925C1.03325 11.424 0.797321 11.5217 0.623372 11.6956C0.449423 11.8696 0.3517 12.1055 0.3517 12.3515C0.3517 12.5975 0.449423 12.8334 0.623372 13.0074C0.797321 13.1813 1.03325 13.2791 1.27925 13.2791V13.2791Z" fill="var(--fill-0, #151E52)" stroke="var(--stroke-0, #151E52)" stroke-width="0.7034" stroke-miterlimit="10"/>
</g>
</svg>
