<svg  width="100%" height="100%" overflow="visible" style="display: block;" viewBox="0 0 162 111.364" fill="none" xmlns="http://www.w3.org/2000/svg">
<g id="Group 1000000915">
<ellipse id="Ellipse 733" cx="81" cy="89.364" rx="81" ry="22" fill="var(--fill-0, #87D0E9)" fill-opacity="0.55"/>
<g id="Group 1000000890">
<g id="Ellipse 565">
<g filter="url(#filter0_ii_27820_38070)">
<path d="M110.077 30.5258C110.077 55.9633 85.9154 84.3718 81.044 84.3718C76.1727 84.3718 52.0107 55.9633 52.0107 30.5258C52.0107 14.4202 65.0094 1.36398 81.044 1.36398C97.0786 1.36398 110.077 14.4202 110.077 30.5258Z" fill="var(--fill-0, #6FC9E8)"/>
</g>
<path d="M110.077 30.5258C110.077 55.9633 85.9154 84.3718 81.044 84.3718C76.1727 84.3718 52.0107 55.9633 52.0107 30.5258C52.0107 14.4202 65.0094 1.36398 81.044 1.36398C97.0786 1.36398 110.077 14.4202 110.077 30.5258Z" stroke="var(--stroke-0, #161D4F)" stroke-width="2.72795"/>
</g>
<path id="Ellipse 600" d="M69.4356 56.2397C69.4356 49.5465 75.1611 48.421 81.0957 48.421C87.0304 48.421 92.7559 49.5465 92.7559 56.2397C92.7559 62.9329 87.0304 67.5769 81.0957 67.5769C75.1611 67.5769 69.4356 62.9329 69.4356 56.2397Z" fill="var(--fill-0, #DEF8FF)" fill-opacity="0.2"/>
<g id="OwtingLogo">
<g id="Union">
<path d="M91.6426 13.4421C99.1789 13.4421 105.289 19.5514 105.289 27.0876C105.289 34.624 99.179 40.7341 91.6426 40.7341C87.4161 40.734 83.6387 38.8118 81.1357 35.7946C78.6327 38.8117 74.8554 40.7341 70.6289 40.7341C63.0927 40.7339 56.9834 34.6239 56.9834 27.0876C56.9836 19.5515 63.0928 13.4423 70.6289 13.4421C74.8552 13.4421 78.6327 15.3638 81.1357 18.3806C83.6387 15.3636 87.4162 13.4422 91.6426 13.4421Z" fill="var(--fill-0, #FAFAFC)"/>
<path d="M91.6426 13.4421V12.1416H91.6425L91.6426 13.4421ZM105.289 27.0876H106.59V27.0876L105.289 27.0876ZM91.6426 40.7341L91.6425 42.0346H91.6426V40.7341ZM81.1357 35.7946L82.1367 34.9643C81.8896 34.6664 81.5227 34.4941 81.1358 34.4941C80.7488 34.4941 80.3819 34.6664 80.1348 34.9642L81.1357 35.7946ZM70.6289 40.7341L70.6289 42.0346H70.6289V40.7341ZM56.9834 27.0876L55.6828 27.0876V27.0876H56.9834ZM70.6289 13.4421V12.1416H70.6289L70.6289 13.4421ZM81.1357 18.3806L80.1348 19.211C80.3819 19.5088 80.7488 19.6811 81.1358 19.6811C81.5227 19.6811 81.8896 19.5088 82.1367 19.211L81.1357 18.3806ZM91.6426 13.4421V14.7427C98.4607 14.7427 103.988 20.2697 103.989 27.0876L105.289 27.0876L106.59 27.0876C106.589 18.833 99.897 12.1416 91.6426 12.1416V13.4421ZM105.289 27.0876H103.989C103.989 33.9057 98.4607 39.4335 91.6426 39.4335V40.7341V42.0346C99.8973 42.0346 106.59 35.3423 106.59 27.0876H105.289ZM91.6426 40.7341L91.6426 39.4335C87.8195 39.4334 84.4033 37.6965 82.1367 34.9643L81.1357 35.7946L80.1348 36.625C82.8741 39.9271 87.0126 42.0345 91.6425 42.0346L91.6426 40.7341ZM81.1357 35.7946L80.1348 34.9642C77.8681 37.6964 74.4519 39.4335 70.6289 39.4335V40.7341V42.0346C75.2589 42.0346 79.3973 39.927 82.1367 36.625L81.1357 35.7946ZM70.6289 40.7341L70.6289 39.4335C63.811 39.4334 58.284 33.9057 58.284 27.0876H56.9834H55.6828C55.6828 35.3421 62.3743 42.0344 70.6289 42.0346L70.6289 40.7341ZM56.9834 27.0876L58.284 27.0876C58.2841 20.2698 63.8111 14.7428 70.6289 14.7427L70.6289 13.4421L70.6289 12.1416C62.3745 12.1418 55.683 18.8332 55.6828 27.0876L56.9834 27.0876ZM70.6289 13.4421V14.7427C74.4519 14.7427 77.8683 16.4792 80.1348 19.211L81.1357 18.3806L82.1366 17.5501C79.3972 14.2483 75.2585 12.1416 70.6289 12.1416V13.4421ZM81.1357 18.3806L82.1367 19.211C84.4031 16.4791 87.8195 14.7427 91.6426 14.7427L91.6426 13.4421L91.6425 12.1416C87.013 12.1417 82.8743 14.2482 80.1348 17.5502L81.1357 18.3806Z" fill="var(--stroke-0, #161D4F)"/>
</g>
<ellipse id="Ellipse 564" cx="91.712" cy="25.8079" rx="4.87895" ry="4.83065" fill="var(--fill-0, #161D4F)"/>
<ellipse id="Ellipse 565_2" cx="70.5557" cy="25.8079" rx="4.87895" ry="4.83065" fill="var(--fill-0, #161D4F)"/>
<path id="Ellipse 566" d="M84.6465 37.9801C84.6465 40.4054 81.8332 42.3716 81.1333 42.3716C80.4334 42.3716 77.6201 40.4054 77.6201 37.9801C77.6201 35.5547 79.193 33.5886 81.1333 33.5886C83.0736 33.5886 84.6465 35.5547 84.6465 37.9801Z" fill="var(--fill-0, #FFCB47)" stroke="var(--stroke-0, #161D4F)" stroke-width="2.22952" stroke-linejoin="round"/>
</g>
<path id="Vector 157" d="M73.4463 23.1863C73.7572 23.3811 74.0307 23.7709 74.1728 24.2283" stroke="var(--stroke-0, #EAEDEF)" stroke-width="0.50662" stroke-linecap="round" stroke-linejoin="round"/>
<path id="Vector 158" d="M94.543 23.2961C94.7668 23.4469 95.2039 24.174 95.1908 24.338" stroke="var(--stroke-0, #EAEDEF)" stroke-width="0.50662" stroke-linecap="round" stroke-linejoin="round"/>
</g>
</g>
<defs>
<filter id="filter0_ii_27820_38070" x="48.5646" y="-2.08216" width="64.9588" height="89.9001" filterUnits="userSpaceOnUse" color-interpolation-filters="sRGB">
<feFlood flood-opacity="0" result="BackgroundImageFix"/>
<feBlend mode="normal" in="SourceGraphic" in2="BackgroundImageFix" result="shape"/>
<feColorMatrix in="SourceAlpha" type="matrix" values="0 0 0 0 0 0 0 0 0 0 0 0 0 0 0 0 0 0 127 0" result="hardAlpha"/>
<feOffset dx="3.95611" dy="-7.49578"/>
<feGaussianBlur stdDeviation="1.04108"/>
<feComposite in2="hardAlpha" operator="arithmetic" k2="-1" k3="1"/>
<feColorMatrix type="matrix" values="0 0 0 0 0 0 0 0 0 0 0 0 0 0 0 0 0 0 0.1 0"/>
<feBlend mode="normal" in2="shape" result="effect1_innerShadow_27820_38070"/>
<feColorMatrix in="SourceAlpha" type="matrix" values="0 0 0 0 0 0 0 0 0 0 0 0 0 0 0 0 0 0 127 0" result="hardAlpha"/>
<feOffset dx="-5.83005" dy="4.58076"/>
<feGaussianBlur stdDeviation="1.04108"/>
<feComposite in2="hardAlpha" operator="arithmetic" k2="-1" k3="1"/>
<feColorMatrix type="matrix" values="0 0 0 0 0.980392 0 0 0 0 0.980392 0 0 0 0 0.980392 0 0 0 0.25 0"/>
<feBlend mode="normal" in2="effect1_innerShadow_27820_38070" result="effect2_innerShadow_27820_38070"/>
</filter>
</defs>
</svg>
