<svg preserveAspectRatio="xMidYMid meet" width="100%" height="100%" overflow="visible" style="display: block;" viewBox="0 0 36.8527 22.6911" fill="none" xmlns="http://www.w3.org/2000/svg">
<g id="OwtingLogo">
<g id="Union">
<path d="M26.0333 0.941506C31.489 0.941614 35.9112 5.36468 35.9112 10.8204C35.9111 16.276 31.4889 20.6982 26.0333 20.6983C22.9731 20.6983 20.2379 19.307 18.4259 17.1222C16.6139 19.3065 13.8802 20.6982 10.8204 20.6983C5.36471 20.6983 0.941673 16.2761 0.941506 10.8204C0.941506 5.36461 5.36461 0.941506 10.8204 0.941506C13.8798 0.941599 16.6139 2.33282 18.4259 4.5167C20.2379 2.33234 22.9734 0.941506 26.0333 0.941506Z" fill="var(--fill-0, #FAFAFC)"/>
<path d="M26.0333 0.941506L26.0333 0H26.0333V0.941506ZM35.9112 10.8204L36.8527 10.8204V10.8204H35.9112ZM26.0333 20.6983V21.6398H26.0333L26.0333 20.6983ZM18.4259 17.1222L19.1506 16.5211C18.9717 16.3055 18.7061 16.1807 18.4259 16.1807C18.1457 16.1807 17.8801 16.3054 17.7012 16.5211L18.4259 17.1222ZM10.8204 20.6983V21.6398H10.8204L10.8204 20.6983ZM0.941506 10.8204H0V10.8204L0.941506 10.8204ZM10.8204 0.941506L10.8204 0H10.8204V0.941506ZM18.4259 4.5167L17.7013 5.11788C17.8802 5.33348 18.1458 5.45822 18.4259 5.45821C18.7061 5.45819 18.9717 5.33343 19.1505 5.11781L18.4259 4.5167ZM26.0333 0.941506L26.0333 1.88301C30.9689 1.88311 34.9697 5.88456 34.9697 10.8204H35.9112H36.8527C36.8527 4.8448 32.0091 0.000118554 26.0333 0L26.0333 0.941506ZM35.9112 10.8204L34.9697 10.8204C34.9696 15.756 30.9689 19.7567 26.0333 19.7568L26.0333 20.6983L26.0333 21.6398C32.0089 21.6397 36.8526 16.796 36.8527 10.8204L35.9112 10.8204ZM26.0333 20.6983V19.7568C23.265 19.7568 20.7914 18.4995 19.1506 16.5211L18.4259 17.1222L17.7012 17.7232C19.6844 20.1145 22.6811 21.6398 26.0333 21.6398V20.6983ZM18.4259 17.1222L17.7012 16.5211C16.0603 18.4992 13.588 19.7568 10.8204 19.7568L10.8204 20.6983L10.8204 21.6398C14.1724 21.6397 17.1675 20.1138 19.1505 17.7233L18.4259 17.1222ZM10.8204 20.6983V19.7568C5.8846 19.7568 1.88316 15.756 1.88301 10.8204L0.941506 10.8204L0 10.8204C0.000182927 16.7961 4.84483 21.6398 10.8204 21.6398V20.6983ZM0.941506 10.8204H1.88301C1.88301 5.88459 5.88459 1.88301 10.8204 1.88301V0.941506V0C4.84463 0 0 4.84463 0 10.8204H0.941506ZM10.8204 0.941506L10.8204 1.88301C13.5878 1.8831 16.0605 3.14024 17.7013 5.11788L18.4259 4.5167L19.1505 3.91552C17.1674 1.5254 14.1719 0.000101626 10.8204 0L10.8204 0.941506ZM18.4259 4.5167L19.1505 5.11781C20.7912 3.13995 23.2653 1.88301 26.0333 1.88301V0.941506V0C22.6816 0 19.6845 1.52473 17.7012 3.91559L18.4259 4.5167Z" fill="var(--stroke-0, #161D4F)"/>
</g>
<ellipse id="Ellipse 564" cx="26.0847" cy="9.89377" rx="3.53201" ry="3.49704" fill="var(--fill-0, #161D4F)"/>
<ellipse id="Ellipse 565" cx="10.7676" cy="9.89377" rx="3.53201" ry="3.49704" fill="var(--fill-0, #161D4F)"/>
<path id="Ellipse 566" d="M20.9697 18.7049C20.9697 20.4607 18.9331 21.8841 18.4264 21.8841C17.9197 21.8841 15.8831 20.4607 15.8831 18.7049C15.8831 16.9492 17.0218 15.5258 18.4264 15.5258C19.831 15.5258 20.9697 16.9492 20.9697 18.7049Z" fill="var(--fill-0, #FFCB47)" stroke="var(--stroke-0, #161D4F)" stroke-width="1.61401" stroke-linejoin="round"/>
<path id="Vector 157" d="M12.3283 7.94426C12.5534 8.08532 12.7514 8.36748 12.8542 8.69857" stroke="var(--stroke-0, #EAEDEF)" stroke-width="0.852761" stroke-linecap="round" stroke-linejoin="round"/>
<path id="Vector 158" d="M27.545 8.01848C27.7252 8.12913 28.0798 8.65855 28.0703 8.77725" stroke="var(--stroke-0, #EAEDEF)" stroke-width="0.852761" stroke-linecap="round" stroke-linejoin="round"/>
</g>
</svg>
