<svg  width="100%" height="100%" overflow="visible" style="display: block;" viewBox="0 0 31.4177 31.9527" fill="none" xmlns="http://www.w3.org/2000/svg">
<g id="Group 1000000833">
<g id="Union">
<path d="M17.4507 6.10849C19.1681 6.08399 20.5441 7.62168 20.5245 9.54335C20.5048 11.4652 19.1044 12.2596 17.3869 12.2843C16.6029 12.2956 15.8898 12.142 15.3465 11.7917C14.8229 12.3069 14.0655 12.6254 13.2033 12.7677C11.4221 13.0618 9.87291 12.4979 9.61182 10.5065C9.35085 8.51491 10.5833 6.66207 12.3645 6.36788C13.3996 6.197 14.3917 6.59029 15.0929 7.34036C15.6706 6.59893 16.5139 6.12198 17.4507 6.10849Z" fill="var(--fill-0, #FAFAFC)"/>
<path d="M17.4507 6.10849L17.4512 5.84896L17.4512 5.84896L17.4507 6.10849ZM20.5245 9.54335L20.784 9.5418L20.784 9.5418L20.5245 9.54335ZM17.3869 12.2843L17.3864 12.5439L17.3864 12.5439L17.3869 12.2843ZM15.3465 11.7917L15.4896 11.5729C15.3881 11.5074 15.2535 11.5221 15.166 11.6081L15.3465 11.7917ZM13.2033 12.7677L13.2416 13.0238L13.2416 13.0238L13.2033 12.7677ZM9.61182 10.5065L9.35447 10.5443L9.35447 10.5443L9.61182 10.5065ZM12.3645 6.36788L12.3263 6.11181L12.3263 6.11181L12.3645 6.36788ZM15.0929 7.34036L14.902 7.51925C14.9535 7.57431 15.0269 7.60366 15.1028 7.59953C15.1787 7.59541 15.2496 7.55823 15.2967 7.49781L15.0929 7.34036ZM17.4507 6.10849L17.4502 6.36802C18.9964 6.34596 20.2834 7.73887 20.2649 9.5449L20.5245 9.54335L20.784 9.5418C20.8048 7.50449 19.3398 5.82202 17.4512 5.84896L17.4507 6.10849ZM20.5245 9.54335L20.2649 9.5449C20.2558 10.4359 19.931 11.035 19.4349 11.4215C18.9285 11.816 18.2122 12.0129 17.3873 12.0248L17.3869 12.2843L17.3864 12.5439C18.2791 12.531 19.1217 12.3183 19.7498 11.829C20.3883 11.3316 20.7734 10.5726 20.784 9.5418L20.5245 9.54335ZM17.3869 12.2843L17.3873 12.0248C16.6357 12.0356 15.9775 11.8875 15.4896 11.5729L15.3465 11.7917L15.2034 12.0105C15.8021 12.3965 16.57 12.5556 17.3864 12.5439L17.3869 12.2843ZM15.3465 11.7917L15.166 11.6081C14.6938 12.0727 13.994 12.3748 13.1651 12.5116L13.2033 12.7677L13.2416 13.0238C14.137 12.8759 14.9519 12.5411 15.527 11.9753L15.3465 11.7917ZM13.2033 12.7677L13.1651 12.5116C12.3076 12.6532 11.5398 12.5819 10.9653 12.2662C10.4032 11.9573 9.99064 11.3952 9.86917 10.4687L9.61182 10.5065L9.35447 10.5443C9.49409 11.6093 9.98663 12.3247 10.7097 12.7221C11.4204 13.1127 12.3179 13.1762 13.2416 13.0238L13.2033 12.7677ZM9.61182 10.5065L9.86917 10.4687C9.62303 8.59023 10.787 6.89082 12.4028 6.62394L12.3645 6.36788L12.3263 6.11181C10.3796 6.43333 9.07868 8.43958 9.35447 10.5443L9.61182 10.5065ZM12.3645 6.36788L12.4028 6.62395C13.3427 6.46877 14.2518 6.82374 14.902 7.51925L15.0929 7.34036L15.2838 7.16147C14.5316 6.35684 13.4565 5.92522 12.3263 6.11181L12.3645 6.36788ZM15.0929 7.34036L15.2967 7.49781C15.8317 6.81114 16.6032 6.38021 17.4503 6.36801L17.4507 6.10849L17.4512 5.84896C16.4246 5.86375 15.5095 6.38673 14.8892 7.18291L15.0929 7.34036Z" fill="var(--stroke-0, #62294B)"/>
</g>
<path id="Vector 303" d="M11.9494 9.30694C12.1742 8.95303 12.8706 8.39124 13.8573 8.97535" stroke="var(--stroke-0, #171E4F)" stroke-width="0.519095" stroke-linecap="round"/>
<g id="Ellipse 566" filter="url(#filter0_d_27822_12436)">
<path d="M16.5803 12.2467C16.6326 12.8743 15.978 13.4528 15.8046 13.4701C15.6312 13.4875 14.8916 13.0484 14.8393 12.4208C14.7869 11.7932 15.1342 11.2455 15.615 11.1974C16.0958 11.1494 16.528 11.6192 16.5803 12.2467Z" fill="var(--fill-0, #FFCB47)"/>
<path d="M16.5803 12.2467C16.6326 12.8743 15.978 13.4528 15.8046 13.4701C15.6312 13.4875 14.8916 13.0484 14.8393 12.4208C14.7869 11.7932 15.1342 11.2455 15.615 11.1974C16.0958 11.1494 16.528 11.6192 16.5803 12.2467Z" stroke="var(--stroke-0, #62294B)" stroke-width="0.519095" stroke-linejoin="round"/>
</g>
<path id="Vector 303_2" d="M16.8724 8.7015C17.0726 8.38641 17.6926 7.88624 18.571 8.40628" stroke="var(--stroke-0, #171E4F)" stroke-width="0.519095" stroke-linecap="round"/>
</g>
<defs>
<filter id="filter0_d_27822_12436" x="-4.76837e-07" y="0" width="31.4177" height="31.9527" filterUnits="userSpaceOnUse" color-interpolation-filters="sRGB">
<feFlood flood-opacity="0" result="BackgroundImageFix"/>
<feColorMatrix in="SourceAlpha" type="matrix" values="0 0 0 0 0 0 0 0 0 0 0 0 0 0 0 0 0 0 127 0" result="hardAlpha"/>
<feOffset dy="3.64416"/>
<feGaussianBlur stdDeviation="7.28831"/>
<feComposite in2="hardAlpha" operator="out"/>
<feColorMatrix type="matrix" values="0 0 0 0 0 0 0 0 0 0 0 0 0 0 0 0 0 0 0.25 0"/>
<feBlend mode="normal" in2="BackgroundImageFix" result="effect1_dropShadow_27822_12436"/>
<feBlend mode="normal" in="SourceGraphic" in2="effect1_dropShadow_27822_12436" result="shape"/>
</filter>
</defs>
</svg>
