<svg  width="100%" height="100%" overflow="visible" style="display: block;" viewBox="0 0 3.06584 7.49431" fill="none" xmlns="http://www.w3.org/2000/svg">
<g id="Group 1171276156">
<path id="Rectangle 39640" d="M1.52071 6.44203C1.55177 6.41235 1.57341 6.37419 1.58295 6.3323L2.88484 0.616492C2.88802 0.602555 2.88991 0.588323 2.88826 0.574124C2.87964 0.499991 2.81753 0.253552 2.37472 0.157274C1.94631 0.0641266 1.75711 0.247719 1.70231 0.317862C1.68951 0.334248 1.68222 0.353834 1.67766 0.374122L1.56832 0.860565L1.50479 1.14326L0.40129 6.05291C0.395038 6.08073 0.394275 6.1095 0.399043 6.1376L0.53094 6.91511C0.560321 7.0883 0.771353 7.15823 0.898346 7.03686L1.52071 6.44203Z" fill="var(--fill-0, #FFCB47)" stroke="var(--stroke-0, #151E52)" stroke-width="0.262926"/>
<g id="Rectangle 39641">
<path d="M2.45 1.65922C2.57213 1.69051 2.6954 1.61255 2.71947 1.48879L2.88001 0.663193C2.88229 0.651453 2.88368 0.639702 2.88248 0.627802C2.87549 0.558507 2.81895 0.305221 2.36855 0.207292C1.94014 0.114144 1.75094 0.297736 1.69614 0.367879C1.68333 0.384265 1.67604 0.403851 1.67148 0.42414L1.56215 0.910583L1.50395 1.16955C1.5004 1.18532 1.49861 1.20143 1.49861 1.21759L1.49861 1.24538C1.49861 1.34544 1.5664 1.43279 1.66333 1.45763L2.45 1.65922Z" fill="#FFA0A0"/>
</g>
<path id="Rectangle 39642" d="M1.56156 6.37004C1.57512 6.35708 1.58345 6.33975 1.56829 6.3287C1.44065 6.23561 0.525421 5.98399 0.416145 6.03539C0.405031 6.04061 0.406517 6.05512 0.408571 6.06723L0.544603 6.8691C0.573984 7.0423 0.785016 7.11223 0.912009 6.99085L1.56156 6.37004Z" fill="var(--fill-0, #FAD8B2)"/>
<path id="Rectangle 39643" d="M0.93827 6.92799C0.976029 6.88744 0.977628 6.84027 0.924099 6.82596C0.812772 6.79621 0.609152 6.76839 0.569771 6.68966L0.613416 7.27685L0.93827 6.92799Z" fill="var(--fill-0, #151E52)"/>
<path id="Rectangle 39641_2" d="M2.4545 1.54798C2.58171 1.57989 2.70827 1.49365 2.72511 1.36359L2.75031 1.16886C2.75356 1.14373 2.75198 1.11783 2.73633 1.09791C2.69605 1.0466 2.57236 0.944511 2.19969 0.857387C1.86543 0.779241 1.69535 0.800155 1.61624 0.825319C1.57424 0.838675 1.55149 0.878069 1.54297 0.921304L1.51109 1.08312L1.49257 1.17709C1.48858 1.19733 1.48937 1.21823 1.49489 1.23811C1.50763 1.28404 1.54407 1.31959 1.59031 1.33119L2.4545 1.54798Z" fill="var(--fill-0, #BFBFBF)"/>
<path id="Rectangle 39642_2" d="M1.521 6.44203C1.55206 6.41235 1.57371 6.37419 1.58325 6.3323L2.88514 0.616492C2.88831 0.602555 2.8902 0.588323 2.88855 0.574124C2.87994 0.499991 2.81783 0.253552 2.37502 0.157274C1.9466 0.0641266 1.75741 0.247719 1.7026 0.317862C1.6898 0.334248 1.68251 0.353834 1.67795 0.374122L1.56862 0.860565L1.50508 1.14326L0.401585 6.05291C0.395333 6.08073 0.39457 6.1095 0.399338 6.1376L0.593364 7.28133C0.596302 7.29865 0.617405 7.30565 0.630104 7.29351L1.521 6.44203Z" stroke="var(--stroke-0, #151E52)" stroke-width="0.262926"/>
<path id="Vector 629" d="M1.58607 0.704787C1.58607 0.799733 1.58607 0.894679 1.58607 0.989624C1.60616 0.989442 1.62616 0.989425 1.64612 0.989598C2.00498 0.987963 2.34545 1.07819 2.66229 1.25027C2.68012 1.25978 2.69724 1.26913 2.71497 1.27905C2.75845 1.20296 2.80193 1.12686 2.84541 1.05077C2.82635 1.03966 2.8079 1.02915 2.78862 1.01844C2.44963 0.824382 2.0444 0.709309 1.65118 0.705902C1.62941 0.705331 1.60772 0.70497 1.58607 0.704787Z" fill="var(--stroke-0, #151E52)"/>
<path id="Vector 631" d="M1.44362 1.38416C1.8161 1.38416 2.12285 1.40607 2.62679 1.64708" stroke="var(--stroke-0, #151E52)" stroke-width="0.262926"/>
<path id="Vector 632" d="M0.369965 5.92029C0.654802 5.97507 1.08206 6.06271 1.59695 6.21608" stroke="var(--stroke-0, #151E52)" stroke-width="0.262926"/>
<path id="Vector 630" d="M1.56415 1.1322C1.96117 1.13223 2.25433 1.17602 2.68159 1.38417" stroke="var(--stroke-0, #151E52)" stroke-width="0.109553"/>
<path id="Vector 633" d="M1.86001 1.38416L0.786392 5.97441M2.27631 1.48275L1.26842 6.06205" stroke="var(--stroke-0, #151E52)" stroke-width="0.109553"/>
</g>
</svg>
