<svg  width="100%" height="100%" overflow="visible" style="display: block;" viewBox="0 0 12.3303 12.546" fill="none" xmlns="http://www.w3.org/2000/svg">
<g id="Group 1171276153">
<g id="Ellipse 1989" filter="url(#filter0_d_27822_12461)">
<path d="M6.34372 6.48498C6.57226 7.02559 7.17033 7.68144 7.59533 7.559C7.68041 7.49227 7.73725 6.79359 8.00173 6.28728C7.84572 5.74581 7.486 5.13289 6.93195 5.29252C6.50696 5.41496 5.99058 5.64963 6.34372 6.48498Z" fill="var(--fill-0, #553326)"/>
<path d="M6.34372 6.48498C6.57226 7.02559 7.17033 7.68144 7.59533 7.559C7.68041 7.49227 7.73725 6.79359 8.00173 6.28728C7.84572 5.74581 7.486 5.13289 6.93195 5.29252C6.50696 5.41496 5.99058 5.64963 6.34372 6.48498Z" stroke="var(--stroke-0, #161D4F)" stroke-width="0.308686" stroke-linejoin="round"/>
</g>
<g id="Ellipse 1990" filter="url(#filter1_d_27822_12461)">
<path d="M6.62834 6.72881C6.69205 6.86735 7.1027 7.42658 7.50191 7.4396C7.51163 7.44018 7.5236 7.37208 7.53461 7.33345C7.54593 7.28508 7.36167 7.17106 7.21459 7.10638C6.99701 7.01071 6.57867 6.6208 6.62834 6.72881Z" fill="var(--fill-0, #F68B6A)"/>
</g>
<g id="Group 1171276148">
<g id="Union">
<path d="M8.7215 0.2641C7.61877 0.360042 6.63431 1.16502 6.13708 2.18828C5.42536 1.47818 4.36137 1.11524 3.21961 1.21439C1.38614 1.37381 0.0373851 2.97339 0.336416 4.78878C0.636428 6.60894 2.36129 7.48588 3.81896 7.35941C5.09654 7.24846 6.43169 6.49373 6.875 5.25606C7.55584 5.70651 8.41727 5.99561 9.01837 5.97369C10.6844 5.91284 12.1107 4.8296 11.9639 3.13986C11.817 1.45014 10.3833 0.11978 8.7215 0.2641Z" fill="var(--fill-0, #FAFAFC)"/>
<path d="M8.7215 0.2641L8.69954 0.011761L8.69958 0.0117575L8.7215 0.2641ZM6.13708 2.18828L6.3649 2.29898C6.32911 2.37262 6.25994 2.42443 6.17921 2.43804C6.09847 2.45166 6.01614 2.42542 5.95818 2.36759L6.13708 2.18828ZM3.21961 1.21439L3.19767 0.962054L3.1977 0.962051L3.21961 1.21439ZM0.336416 4.78878L0.0864961 4.82997L0.0864919 4.82994L0.336416 4.78878ZM3.81896 7.35941L3.84087 7.61175L3.84085 7.61175L3.81896 7.35941ZM6.875 5.25606L6.63654 5.17065C6.66277 5.0974 6.72121 5.04028 6.79504 5.01572C6.86886 4.99116 6.94987 5.00188 7.01476 5.04481L6.875 5.25606ZM9.01837 5.97369L9.02761 6.22682L9.0276 6.22682L9.01837 5.97369ZM11.9639 3.13986L12.2163 3.11792L12.2163 3.11794L11.9639 3.13986ZM8.7215 0.2641L8.74345 0.516439C7.74804 0.603044 6.83208 1.33755 6.3649 2.29898L6.13708 2.18828L5.90926 2.07758C6.43653 0.992488 7.48951 0.117039 8.69954 0.011761L8.7215 0.2641ZM6.13708 2.18828L5.95818 2.36759C5.30573 1.71662 4.31833 1.37322 3.24153 1.46674L3.21961 1.21439L3.1977 0.962051C4.40441 0.857253 5.54498 1.23973 6.31598 2.00897L6.13708 2.18828ZM3.21961 1.21439L3.24155 1.46673C1.54244 1.61447 0.313296 3.08998 0.586341 4.74761L0.336416 4.78878L0.0864919 4.82994C-0.238526 2.8568 1.22985 1.13316 3.19767 0.962054L3.21961 1.21439ZM0.336416 4.78878L0.586337 4.74758C0.859399 6.40424 2.43518 7.22523 3.79706 7.10707L3.81896 7.35941L3.84085 7.61175C2.2874 7.74654 0.413458 6.81364 0.0864961 4.82997L0.336416 4.78878ZM3.81896 7.35941L3.79704 7.10707C5.00986 7.00174 6.23671 6.28693 6.63654 5.17065L6.875 5.25606L7.11346 5.34147C6.62667 6.70053 5.18323 7.49517 3.84087 7.61175L3.81896 7.35941ZM6.875 5.25606L7.01476 5.04481C7.66721 5.47648 8.47697 5.73997 9.00914 5.72057L9.01837 5.97369L9.0276 6.22682C8.35757 6.25124 7.44448 5.93653 6.73524 5.4673L6.875 5.25606ZM9.01837 5.97369L9.00912 5.72057C9.79276 5.69195 10.5063 5.42303 11.0019 4.97896C11.4923 4.53959 11.7777 3.923 11.7116 3.16177L11.9639 3.13986L12.2163 3.11794C12.2969 4.04645 11.9425 4.81636 11.34 5.35625C10.7426 5.89146 9.91002 6.19459 9.02761 6.22682L9.01837 5.97369ZM11.9639 3.13986L11.7116 3.16179C11.5754 1.59508 10.25 0.385598 8.74341 0.516442L8.7215 0.2641L8.69958 0.0117575C10.5165 -0.146038 12.0587 1.30519 12.2163 3.11792L11.9639 3.13986Z" fill="var(--stroke-0, #161D4F)"/>
</g>
<g id="Group 1000000881">
<g id="Ellipse 566" filter="url(#filter2_d_27822_12461)">
<path d="M6.26064 6.15275C7.10286 6.18021 7.81857 6.20354 8.50988 6.22608C8.45883 5.40557 7.81765 5.03376 7.26263 5.01567C6.7076 4.99757 6.18974 5.4974 6.26064 6.15275Z" fill="var(--fill-0, #FFCB47)"/>
<path d="M6.26064 6.15275C7.10286 6.18021 7.81857 6.20354 8.50988 6.22608C8.45883 5.40557 7.81765 5.03376 7.26263 5.01567C6.7076 4.99757 6.18974 5.4974 6.26064 6.15275Z" stroke="var(--stroke-0, #161D4F)" stroke-width="0.331228" stroke-linejoin="round"/>
</g>
<g id="Subtract">
</g>
</g>
</g>
<g id="Group 1171276149">
<circle id="Ellipse 1985" cx="1.35951" cy="1.35951" r="1.33868" transform="matrix(0.110364 -0.993891 -0.993891 -0.110364 5.55057 5.48446)" fill="var(--fill-0, #151E52)" stroke="var(--stroke-0, #151E52)" stroke-width="0.0416523"/>
<path id="Vector 158 (Stroke)" fill-rule="evenodd" clip-rule="evenodd" d="M5.06948 3.53014C5.06953 3.53011 5.06928 3.52959 5.06881 3.52859C5.10844 3.61298 5.20886 3.64916 5.29309 3.6094C5.37732 3.56965 5.41348 3.46901 5.37384 3.38462C5.3535 3.34131 5.32004 3.30134 5.29405 3.27301C5.26494 3.24128 5.23111 3.2092 5.19792 3.18063C5.16493 3.15222 5.12954 3.12467 5.09675 3.10303C5.08054 3.09234 5.06214 3.08121 5.04308 3.07204C5.02941 3.06546 4.99446 3.04917 4.95139 3.04785C4.85834 3.04501 4.78057 3.11829 4.77769 3.21153C4.77521 3.2917 4.82891 3.36053 4.90316 3.38005C4.90542 3.38142 4.90813 3.38313 4.91127 3.3852C4.92891 3.39684 4.9527 3.41497 4.97816 3.4369C5.00343 3.45865 5.02734 3.48155 5.04581 3.50168C5.06341 3.52087 5.06929 3.53025 5.06948 3.53014Z" fill="var(--fill-0, #EAEDEF)"/>
</g>
<g id="Group 1171276150">
<circle id="Ellipse 1985_2" cx="1.287" cy="1.287" r="1.26618" transform="matrix(0.110364 -0.993891 -0.993891 -0.110364 10.5068 4.47637)" fill="var(--fill-0, #151E52)" stroke="var(--stroke-0, #151E52)" stroke-width="0.0416523"/>
<path id="Vector 158 (Stroke)_2" fill-rule="evenodd" clip-rule="evenodd" d="M10.0517 2.62558C10.0517 2.62556 10.0515 2.62507 10.051 2.62412C10.0885 2.70401 10.1836 2.73826 10.2633 2.70062C10.3431 2.66299 10.3773 2.56772 10.3398 2.48783C10.3205 2.44683 10.2888 2.40899 10.2642 2.38218C10.2367 2.35213 10.2047 2.32177 10.1732 2.29472C10.142 2.26783 10.1085 2.24174 10.0775 2.22126C10.0621 2.21114 10.0447 2.2006 10.0267 2.19192C10.0137 2.18569 9.98063 2.17027 9.93985 2.16902C9.85177 2.16633 9.77815 2.2357 9.77542 2.32397C9.77308 2.39987 9.8239 2.46502 9.89419 2.4835C9.89634 2.4848 9.8989 2.48642 9.90187 2.48838C9.91858 2.4994 9.94109 2.51656 9.9652 2.53732C9.98912 2.55791 10.0118 2.57959 10.0292 2.59865C10.0459 2.61681 10.0515 2.6257 10.0517 2.62558Z" fill="var(--fill-0, #EAEDEF)"/>
</g>
</g>
<defs>
<filter id="filter0_d_27822_12461" x="2.21783" y="2.22154" width="9.79245" height="10.3245" filterUnits="userSpaceOnUse" color-interpolation-filters="sRGB">
<feFlood flood-opacity="0" result="BackgroundImageFix"/>
<feColorMatrix in="SourceAlpha" type="matrix" values="0 0 0 0 0 0 0 0 0 0 0 0 0 0 0 0 0 0 127 0" result="hardAlpha"/>
<feOffset dy="0.963552"/>
<feGaussianBlur stdDeviation="1.9271"/>
<feComposite in2="hardAlpha" operator="out"/>
<feColorMatrix type="matrix" values="0 0 0 0 0 0 0 0 0 0 0 0 0 0 0 0 0 0 0.25 0"/>
<feBlend mode="normal" in2="BackgroundImageFix" result="effect1_dropShadow_27822_12461"/>
<feBlend mode="normal" in="SourceGraphic" in2="effect1_dropShadow_27822_12461" result="shape"/>
</filter>
<filter id="filter1_d_27822_12461" x="2.77007" y="3.81942" width="8.61924" height="8.43795" filterUnits="userSpaceOnUse" color-interpolation-filters="sRGB">
<feFlood flood-opacity="0" result="BackgroundImageFix"/>
<feColorMatrix in="SourceAlpha" type="matrix" values="0 0 0 0 0 0 0 0 0 0 0 0 0 0 0 0 0 0 127 0" result="hardAlpha"/>
<feOffset dy="0.963552"/>
<feGaussianBlur stdDeviation="1.9271"/>
<feComposite in2="hardAlpha" operator="out"/>
<feColorMatrix type="matrix" values="0 0 0 0 0 0 0 0 0 0 0 0 0 0 0 0 0 0 0.25 0"/>
<feBlend mode="normal" in2="BackgroundImageFix" result="effect1_dropShadow_27822_12461"/>
<feBlend mode="normal" in="SourceGraphic" in2="effect1_dropShadow_27822_12461" result="shape"/>
</filter>
<filter id="filter2_d_27822_12461" x="2.43371" y="2.10999" width="9.89656" height="8.84825" filterUnits="userSpaceOnUse" color-interpolation-filters="sRGB">
<feFlood flood-opacity="0" result="BackgroundImageFix"/>
<feColorMatrix in="SourceAlpha" type="matrix" values="0 0 0 0 0 0 0 0 0 0 0 0 0 0 0 0 0 0 127 0" result="hardAlpha"/>
<feOffset dy="0.913479"/>
<feGaussianBlur stdDeviation="1.82696"/>
<feComposite in2="hardAlpha" operator="out"/>
<feColorMatrix type="matrix" values="0 0 0 0 0 0 0 0 0 0 0 0 0 0 0 0 0 0 0.25 0"/>
<feBlend mode="normal" in2="BackgroundImageFix" result="effect1_dropShadow_27822_12461"/>
<feBlend mode="normal" in="SourceGraphic" in2="effect1_dropShadow_27822_12461" result="shape"/>
</filter>
</defs>
</svg>
