<svg  width="100%" height="100%" overflow="visible" style="display: block;" viewBox="0 0 19.4356 24.4061" fill="none" xmlns="http://www.w3.org/2000/svg">
<g id="Group 1000001043">
<path id="Vector 169" d="M5.78107 23.4415L5.92475 23.766L6.11064 23.6836L6.13363 23.4816L5.78107 23.4415ZM4.2608 23.7267C4.08162 23.8061 4.00069 24.0157 4.08004 24.1948C4.15939 24.374 4.36898 24.4549 4.54816 24.3756L4.40448 24.0512L4.2608 23.7267ZM5.95788 21.8884L5.60532 21.8483V21.8483L5.95788 21.8884ZM5.78107 23.4415L5.63739 23.1171L4.2608 23.7267L4.40448 24.0512L4.54816 24.3756L5.92475 23.766L5.78107 23.4415ZM6.13468 20.3353L5.78212 20.2952L5.60532 21.8483L5.95788 21.8884L6.31043 21.9285L6.48724 20.3754L6.13468 20.3353ZM5.95788 21.8884L5.60532 21.8483L5.42852 23.4014L5.78107 23.4415L6.13363 23.4816L6.31043 21.9285L5.95788 21.8884Z" fill="var(--stroke-0, #4F3C0B)"/>
<path id="Vector 170" d="M10.2931 23.3022L9.94499 23.371L9.97775 23.5368L10.1271 23.6158L10.2931 23.3022ZM11.2957 24.2342C11.4689 24.3258 11.6837 24.2597 11.7753 24.0865C11.867 23.9133 11.8008 23.6985 11.6276 23.6069L11.4617 23.9205L11.2957 24.2342ZM9.75495 20.578L9.40684 20.6468L9.94499 23.371L10.2931 23.3022L10.6412 23.2334L10.1031 20.5092L9.75495 20.578ZM10.2931 23.3022L10.1271 23.6158L11.2957 24.2342L11.4617 23.9205L11.6276 23.6069L10.459 22.9886L10.2931 23.3022Z" fill="var(--stroke-0, #4F3C0B)"/>
<path id="Ellipse 567" d="M15.5867 7.97231C15.5867 14.673 9.22187 22.1564 7.93863 22.1564C6.65539 22.1564 0.29052 14.673 0.29052 7.97231C0.29052 3.72978 3.71469 0.29052 7.93863 0.29052C12.1626 0.29052 15.5867 3.72978 15.5867 7.97231Z" fill="var(--fill-0, #FFCB47)" stroke="var(--stroke-0, #4F3C0B)" stroke-width="0.581039"/>
<path id="Ellipse 602" d="M3.93887 14.2266C3.93887 12.4634 5.44711 12.1669 7.01044 12.1669C8.57378 12.1669 10.082 12.4634 10.082 14.2266C10.082 15.9897 8.57378 17.213 7.01044 17.213C5.44711 17.213 3.93887 15.9897 3.93887 14.2266Z" fill="var(--fill-0, #DEF8FF)" fill-opacity="0.2"/>
<path id="Vector 491" d="M10.315 15.2605C12.6508 13.7473 14.2144 11.4471 14.7043 10.4861C14.8511 10.1978 15.3002 9.71745 15.9226 10.1025C16.7006 10.5837 17.9887 15.3477 17.1926 16.1685C16.3966 16.9892 13.505 17.5138 12.1813 17.536C10.8576 17.5583 7.39515 17.1519 10.315 15.2605Z" fill="var(--fill-0, #FFCB47)" stroke="var(--stroke-0, #4F3C0B)" stroke-width="0.582342"/>
<g id="Group 1000000835">
<g id="Union">
<path d="M9.99505 3.01208C12.2599 3.01208 14.0966 4.68693 14.0966 6.7533C14.0966 8.8197 12.2599 9.65173 9.99505 9.65173C8.78866 9.65169 7.70437 9.41527 6.95404 8.8822C6.37187 9.41437 5.51857 9.65072 4.56634 9.65076C2.81211 9.65076 1.3898 8.85253 1.38958 6.87048C1.38958 4.88811 2.81198 3.28064 4.56634 3.28064C5.45736 3.28071 6.26199 3.69588 6.8388 4.36365C7.59096 3.5375 8.72594 3.01217 9.99505 3.01208Z" fill="var(--fill-0, #FAFAFC)"/>
<path d="M9.99505 3.01208V2.72153H9.99503L9.99505 3.01208ZM14.0966 6.7533H14.3872V6.75329L14.0966 6.7533ZM9.99505 9.65173L9.99504 9.94229H9.99505V9.65173ZM6.95404 8.8822L7.12231 8.64534C7.01075 8.56608 6.85901 8.57541 6.758 8.66775L6.95404 8.8822ZM4.56634 9.65076V9.94131H4.56635L4.56634 9.65076ZM1.38958 6.87048H1.09903V6.87051L1.38958 6.87048ZM4.56634 3.28064L4.56636 2.99008H4.56634V3.28064ZM6.8388 4.36365L6.61892 4.55358C6.67325 4.61647 6.75191 4.65309 6.83501 4.65418C6.91811 4.65526 6.9977 4.62071 7.05365 4.55925L6.8388 4.36365ZM9.99505 3.01208V3.30264C12.1251 3.30264 13.806 4.87199 13.8061 6.7533L14.0966 6.7533L14.3872 6.75329C14.3871 4.50188 12.3946 2.72153 9.99505 2.72153V3.01208ZM14.0966 6.7533H13.8061C13.8061 7.68306 13.4012 8.31635 12.7406 8.73138C12.0628 9.15719 11.0992 9.36118 9.99505 9.36118V9.65173V9.94229C11.1558 9.94229 12.243 9.73026 13.0497 9.22345C13.8736 8.70586 14.3872 7.88993 14.3872 6.7533H14.0966ZM9.99505 9.65173L9.99506 9.36118C8.81757 9.36114 7.80293 9.12888 7.12231 8.64534L6.95404 8.8822L6.78576 9.11906C7.60581 9.70167 8.75976 9.94225 9.99504 9.94229L9.99505 9.65173ZM6.95404 8.8822L6.758 8.66775C6.24881 9.1332 5.47752 9.36017 4.56633 9.3602L4.56634 9.65076L4.56635 9.94131C5.55963 9.94127 6.49493 9.69553 7.15007 9.09666L6.95404 8.8822ZM4.56634 9.65076V9.3602C3.72759 9.3602 3.00506 9.16862 2.49863 8.77457C2.00376 8.38951 1.68024 7.78428 1.68014 6.87045L1.38958 6.87048L1.09903 6.87051C1.09914 7.93873 1.48689 8.72364 2.14178 9.2332C2.78512 9.73378 3.65086 9.94131 4.56634 9.94131V9.65076ZM1.38958 6.87048H1.68014C1.68014 5.01417 3.00482 3.57119 4.56634 3.57119V3.28064V2.99008C2.61914 2.99008 1.09903 4.76205 1.09903 6.87048H1.38958ZM4.56634 3.28064L4.56632 3.57119C5.363 3.57125 6.09047 3.9418 6.61892 4.55358L6.8388 4.36365L7.05868 4.17371C6.43351 3.44996 5.55171 2.99016 4.56636 2.99008L4.56634 3.28064ZM6.8388 4.36365L7.05365 4.55925C7.74966 3.79478 8.8061 3.30272 9.99507 3.30264L9.99505 3.01208L9.99503 2.72153C8.64577 2.72162 7.43226 3.28022 6.62395 4.16804L6.8388 4.36365Z" fill="var(--stroke-0, #4F3C0B)"/>
</g>
<g id="Ellipse 566" filter="url(#filter0_d_27822_12417)">
<path d="M7.74163 9.66853C7.74163 10.3065 7.0016 10.8237 6.8175 10.8237C6.63339 10.8237 5.89337 10.3065 5.89337 9.66853C5.89337 9.03057 6.30711 8.51339 6.8175 8.51339C7.32788 8.51339 7.74163 9.03057 7.74163 9.66853Z" fill="var(--fill-0, #FFCB47)"/>
<path d="M7.74163 9.66853C7.74163 10.3065 7.0016 10.8237 6.8175 10.8237C6.63339 10.8237 5.89337 10.3065 5.89337 9.66853C5.89337 9.03057 6.30711 8.51339 6.8175 8.51339C7.32788 8.51339 7.74163 9.03057 7.74163 9.66853Z" stroke="var(--stroke-0, #4F3C0B)" stroke-width="0.498093" stroke-linejoin="round"/>
</g>
</g>
<path id="Vector 513" d="M6.39176 6.00352C3.96371 4.72617 1.58144 4.69897 0.377799 4.98642C0.16761 5.03661 0.00820598 5.21084 0.0298143 5.42585C0.135201 6.47451 1.40883 8.45666 2.77889 8.67922C6.19927 9.23484 6.17449 7.47192 6.95422 7.52223C7.73395 7.57253 7.30635 8.67922 10.5762 8.95589C12.8348 9.147 14.5061 7.49511 15.201 6.33878C15.3681 6.06076 15.2483 5.71196 14.957 5.56919C11.1823 3.71905 7.82942 5.9151 7.30635 6.14029C6.95422 6.29189 6.72669 6.17972 6.39176 6.00352Z" fill="var(--fill-0, #151E52)"/>
<path id="Vector 514" d="M2.08333 6.4658L3.12486 4.93321C3.36818 4.97245 3.51045 4.99964 3.69412 5.02956L3.01643 5.96946L4.25757 5.89014L2.64719 8.65991C2.24325 8.54109 1.91434 8.34448 1.80688 8.23342L2.86284 6.38721L2.08333 6.4658Z" fill="var(--fill-0, white)"/>
<path id="Vector 515" d="M10.3588 6.56099L11.4369 4.83062C11.6608 4.80954 11.7854 4.82147 12.0078 4.83064L11.2919 6.00987L12.533 5.9218L10.9226 8.99724C10.4811 8.99724 10.0176 9.01309 9.91019 8.88978L11.1383 6.47372L10.3588 6.56099Z" fill="var(--fill-0, white)"/>
</g>
<defs>
<filter id="filter0_d_27822_12417" x="1.90782" y="5.46197" width="9.81936" height="10.2814" filterUnits="userSpaceOnUse" color-interpolation-filters="sRGB">
<feFlood flood-opacity="0" result="BackgroundImageFix"/>
<feColorMatrix in="SourceAlpha" type="matrix" values="0 0 0 0 0 0 0 0 0 0 0 0 0 0 0 0 0 0 127 0" result="hardAlpha"/>
<feOffset dy="0.934126"/>
<feGaussianBlur stdDeviation="1.86825"/>
<feComposite in2="hardAlpha" operator="out"/>
<feColorMatrix type="matrix" values="0 0 0 0 0 0 0 0 0 0 0 0 0 0 0 0 0 0 0.25 0"/>
<feBlend mode="normal" in2="BackgroundImageFix" result="effect1_dropShadow_27822_12417"/>
<feBlend mode="normal" in="SourceGraphic" in2="effect1_dropShadow_27822_12417" result="shape"/>
</filter>
</defs>
</svg>
