<svg  width="100%" height="100%" overflow="visible" style="display: block;" viewBox="0 0 25.2923 15.5731" fill="none" xmlns="http://www.w3.org/2000/svg">
<g id="OwtingLogo">
<g id="Union">
<path d="M17.8669 0.646161C21.6109 0.646403 24.6459 3.68146 24.6462 7.42546C24.6462 11.1697 21.611 14.2055 17.8669 14.2057C15.7669 14.2057 13.8898 13.2507 12.6462 11.7516C11.4026 13.2507 9.52541 14.2057 7.42546 14.2057C3.68131 14.2055 0.646161 11.1697 0.646161 7.42546C0.646404 3.68146 3.68146 0.646404 7.42546 0.646161C9.52516 0.646161 11.4026 1.60051 12.6462 3.09929C13.8898 1.60051 15.7672 0.646161 17.8669 0.646161Z" fill="var(--fill-0, #FAFAFC)"/>
<path d="M17.8669 0.646161L17.8669 0H17.8669V0.646161ZM24.6462 7.42546H25.2923V7.42542L24.6462 7.42546ZM17.8669 14.2057V14.8519H17.8669L17.8669 14.2057ZM12.6462 11.7516L13.1435 11.3391C13.0207 11.1911 12.8384 11.1055 12.6462 11.1055C12.4539 11.1055 12.2716 11.1911 12.1488 11.3391L12.6462 11.7516ZM7.42546 14.2057L7.42542 14.8519H7.42546V14.2057ZM0.646161 7.42546L0 7.42542V7.42546H0.646161ZM7.42546 0.646161V0H7.42542L7.42546 0.646161ZM12.6462 3.09929L12.1489 3.51189C12.2716 3.65984 12.4539 3.74545 12.6462 3.74545C12.8384 3.74545 13.0207 3.65984 13.1434 3.51189L12.6462 3.09929ZM17.8669 0.646161L17.8668 1.29232C21.254 1.29254 23.9998 4.03834 24 7.4255L24.6462 7.42546L25.2923 7.42542C25.2921 3.32459 21.9677 0.000265002 17.8669 0L17.8669 0.646161ZM24.6462 7.42546H24C24 10.8129 21.2541 13.5594 17.8668 13.5596L17.8669 14.2057L17.8669 14.8519C21.968 14.8516 25.2923 11.5264 25.2923 7.42546H24.6462ZM17.8669 14.2057V13.5596C15.9673 13.5596 14.2696 12.6965 13.1435 11.3391L12.6462 11.7516L12.1488 12.1642C13.5099 13.8049 15.5665 14.8519 17.8669 14.8519V14.2057ZM12.6462 11.7516L12.1488 11.3391C11.0227 12.6965 9.32501 13.5596 7.42546 13.5596V14.2057V14.8519C9.72582 14.8519 11.7824 13.8049 13.1435 12.1642L12.6462 11.7516ZM7.42546 14.2057L7.4255 13.5596C4.03827 13.5594 1.29232 10.8129 1.29232 7.42546H0.646161H0C0 11.5264 3.32436 14.8516 7.42542 14.8519L7.42546 14.2057ZM0.646161 7.42546L1.29232 7.4255C1.29254 4.03834 4.03834 1.29254 7.4255 1.29232L7.42546 0.646161L7.42542 0C3.32459 0.000266135 0.0002653 3.32459 0 7.42542L0.646161 7.42546ZM7.42546 0.646161V1.29232C9.32492 1.29232 11.0229 2.15481 12.1489 3.51189L12.6462 3.09929L13.1434 2.68668C11.7823 1.04622 9.7254 0 7.42546 0V0.646161ZM12.6462 3.09929L13.1434 3.51189C14.2695 2.15481 15.9674 1.29232 17.8669 1.29232V0.646161V0C15.5669 0 13.51 1.04622 12.1489 2.68668L12.6462 3.09929Z" fill="var(--stroke-0, #161D4F)"/>
</g>
<ellipse id="Ellipse 564" cx="17.9022" cy="6.79021" rx="2.42404" ry="2.40004" fill="var(--fill-0, #161D4F)"/>
<ellipse id="Ellipse 565" cx="7.38969" cy="6.79021" rx="2.42404" ry="2.40004" fill="var(--fill-0, #161D4F)"/>
<path id="Ellipse 566" d="M14.3921 12.8374C14.3921 14.0424 12.9944 15.0192 12.6466 15.0192C12.2989 15.0192 10.9011 14.0424 10.9011 12.8374C10.9011 11.6324 11.6826 10.6555 12.6466 10.6555C13.6106 10.6555 14.3921 11.6324 14.3921 12.8374Z" fill="var(--fill-0, #FFCB47)" stroke="var(--stroke-0, #161D4F)" stroke-width="1.10771" stroke-linejoin="round"/>
<path id="Vector 157" d="M8.46059 5.45238C8.61508 5.5492 8.75098 5.74285 8.82154 5.97007" stroke="var(--stroke-0, #EAEDEF)" stroke-width="0.585256" stroke-linecap="round" stroke-linejoin="round"/>
<path id="Vector 158" d="M18.9037 5.50306C19.0274 5.579 19.2708 5.94235 19.2642 6.02381" stroke="var(--stroke-0, #EAEDEF)" stroke-width="0.585256" stroke-linecap="round" stroke-linejoin="round"/>
</g>
</svg>
