<svg  width="100%" height="100%" overflow="visible" style="display: block;" viewBox="0 0 14.4694 15.1184" fill="none" xmlns="http://www.w3.org/2000/svg">
<g id="location">
<path id="Vector" d="M7.23463 8.09583C8.27349 8.09583 9.11565 7.25367 9.11565 6.21481C9.11565 5.17595 8.27349 4.33379 7.23463 4.33379C6.19577 4.33379 5.35361 5.17595 5.35361 6.21481C5.35361 7.25367 6.19577 8.09583 7.23463 8.09583Z" stroke="var(--stroke-0, #949CA8)" stroke-width="1.24467"/>
<path id="Vector_2" d="M2.18251 5.1226C3.37021 -0.0984444 11.1053 -0.0924152 12.287 5.12863C12.9803 8.19132 11.0752 12.0151 9.40516 13.6188C8.19335 14.7884 6.27615 14.7884 5.05831 13.6188C3.39433 12.0151 1.48919 8.18529 2.18251 5.1226Z" stroke="var(--stroke-0, #949CA8)" stroke-width="1.24467"/>
<path id="Vector_3" opacity="0" d="M0.414716 14.0544L0.414716 0.414716L14.0544 0.414716L14.0544 14.0544L0.414716 14.0544Z" stroke="var(--stroke-0, #949CA8)" stroke-width="0.829781"/>
</g>
</svg>
