<svg  width="100%" height="100%" overflow="visible" style="display: block;" viewBox="0 0 32.5734 19.5935" fill="none" xmlns="http://www.w3.org/2000/svg">
<g id="OwtingLogo">
<g id="Union">
<path d="M22.9801 0.9C27.7811 0.900081 31.6734 4.70183 31.6734 9.39121C31.6733 14.0805 27.781 17.8814 22.9801 17.8814C20.2872 17.8814 17.8813 16.685 16.2867 14.8072C14.6922 16.6851 12.2862 17.8814 9.59336 17.8814C4.79237 17.8814 0.90014 14.0805 0.9 9.39121C0.9 4.70178 4.79228 0.9 9.59336 0.9C12.2858 0.900069 14.6922 2.09589 16.2867 3.97324C17.8813 2.09594 20.2876 0.9 22.9801 0.9Z" fill="var(--fill-0, #FAFAFC)"/>
<path d="M22.9801 0.9L22.9801 0H22.9801V0.9ZM31.6734 9.39121L32.5734 9.39124V9.39121H31.6734ZM22.9801 17.8814V18.7814H22.9801L22.9801 17.8814ZM16.2867 14.8072L16.9727 14.2247C16.8017 14.0233 16.5509 13.9072 16.2867 13.9072C16.0225 13.9072 15.7717 14.0233 15.6007 14.2247L16.2867 14.8072ZM9.59336 17.8814V18.7814H9.59338L9.59336 17.8814ZM0.9 9.39121H0V9.39124L0.9 9.39121ZM9.59336 0.9L9.59338 0H9.59336V0.9ZM16.2867 3.97324L15.6007 4.55586C15.7717 4.75719 16.0226 4.87324 16.2867 4.87324C16.5509 4.87325 16.8017 4.75721 16.9727 4.55588L16.2867 3.97324ZM22.9801 0.9L22.9801 1.8C27.3041 1.80007 30.7734 5.21875 30.7734 9.39121H31.6734H32.5734C32.5734 4.18492 28.2581 8.91089e-05 22.9801 0L22.9801 0.9ZM31.6734 9.39121L30.7734 9.39118C30.7733 13.5634 27.3041 16.9814 22.9801 16.9814L22.9801 17.8814L22.9801 18.7814C28.2579 18.7814 32.5733 14.5975 32.5734 9.39124L31.6734 9.39121ZM22.9801 17.8814V16.9814C20.5585 16.9814 18.401 15.9066 16.9727 14.2247L16.2867 14.8072L15.6007 15.3898C17.3616 17.4634 20.0159 18.7814 22.9801 18.7814V17.8814ZM16.2867 14.8072L15.6007 14.2247C14.1725 15.9066 12.0149 16.9814 9.59334 16.9814L9.59336 17.8814L9.59338 18.7814C12.5575 18.7814 15.2119 17.4635 16.9728 15.3898L16.2867 14.8072ZM9.59336 17.8814V16.9814C5.26923 16.9814 1.80012 13.5635 1.8 9.39118L0.9 9.39121L0 9.39124C0.000155866 14.5975 4.3155 18.7814 9.59336 18.7814V17.8814ZM0.9 9.39121H1.8C1.8 5.21868 5.26926 1.8 9.59336 1.8V0.9V0C4.3153 0 0 4.18489 0 9.39121H0.9ZM9.59336 0.9L9.59334 1.8C12.0147 1.80006 14.1727 2.87446 15.6007 4.55586L16.2867 3.97324L16.9727 3.39062C15.2117 1.31731 12.557 7.64728e-05 9.59338 0L9.59336 0.9ZM16.2867 3.97324L16.9727 4.55588C18.4008 2.87449 20.5588 1.8 22.9801 1.8V0.9V0C20.0164 0 17.3617 1.3174 15.6008 3.3906L16.2867 3.97324Z" fill="var(--stroke-0, #161D4F)"/>
</g>
<circle id="Ellipse 564" cx="23.0262" cy="8.59506" r="3.05" fill="var(--fill-0, #161D4F)"/>
<circle id="Ellipse 565" cx="9.5472" cy="8.59506" r="3.05" fill="var(--fill-0, #161D4F)"/>
<path id="Ellipse 566" d="M18.5242 16.1675C18.5242 17.6766 16.7321 18.8999 16.2863 18.8999C15.8404 18.8999 14.0483 17.6766 14.0483 16.1675C14.0483 14.6585 15.0503 13.4352 16.2863 13.4352C17.5223 13.4352 18.5242 14.6585 18.5242 16.1675Z" fill="var(--fill-0, #FFCB47)" stroke="var(--stroke-0, #161D4F)" stroke-width="1.38729" stroke-linejoin="round"/>
<path id="Vector 157" d="M10.9202 6.91852C11.1183 7.03976 11.2925 7.28227 11.383 7.56683" stroke="var(--stroke-0, #EAEDEF)" stroke-width="0.732974" stroke-linecap="round" stroke-linejoin="round"/>
<path id="Vector 158" d="M24.311 6.983C24.4695 7.0781 24.7816 7.53313 24.7732 7.63515" stroke="var(--stroke-0, #EAEDEF)" stroke-width="0.732974" stroke-linecap="round" stroke-linejoin="round"/>
</g>
</svg>
