<svg preserveAspectRatio="none" width="100%" height="100%" overflow="visible" style="display: block;" viewBox="0 0 22 6.43379" fill="none" xmlns="http://www.w3.org/2000/svg">
<g id="Layer 2">
<path id="Vector" d="M3.21689 5.43379C4.44124 5.43379 5.43377 4.44126 5.43377 3.21691C5.43377 1.99255 4.44124 1.00002 3.21689 1.00002C1.99253 1.00002 1 1.99255 1 3.21691C1 4.44126 1.99253 5.43379 3.21689 5.43379Z" stroke="var(--stroke-0, #949CA8)" stroke-width="2"/>
<path id="Vector_2" d="M10.9995 5.43377C12.2239 5.43377 13.2164 4.44124 13.2164 3.21689C13.2164 1.99253 12.2239 1 10.9995 1C9.77516 1 8.78263 1.99253 8.78263 3.21689C8.78263 4.44124 9.77516 5.43377 10.9995 5.43377Z" stroke="var(--stroke-0, #949CA8)" stroke-width="2"/>
<path id="Vector_3" d="M18.7831 5.43377C20.0075 5.43377 21 4.44124 21 3.21689C21 1.99253 20.0075 1 18.7831 1C17.5588 1 16.5662 1.99253 16.5662 3.21689C16.5662 4.44124 17.5588 5.43377 18.7831 5.43377Z" stroke="var(--stroke-0, #949CA8)" stroke-width="2"/>
</g>
</svg>
